<svg width="43" height="44" viewBox="0 0 43 44" fill="none" xmlns="http://www.w3.org/2000/svg">
<path fill-rule="evenodd" clip-rule="evenodd" d="M17.855 15.9742C18.7227 14.9875 19.6196 14.0474 20.5457 13.154C20.1044 11.7948 19.8467 10.3828 19.7794 8.95532C19.6989 6.4221 20.0873 3.73143 21.5289 1.60758C21.9417 0.981275 22.645 -0.0823971 23.4008 0.00507591C24.0446 0.0820522 24.3875 0.988273 24.6429 1.50961C26.3679 5.00853 26.7213 8.6999 24.7304 12.7062C24.0024 14.0929 23.0759 15.3659 21.9802 16.485L22.813 20.7187C22.9133 20.6977 23.0182 20.6802 23.1279 20.6662C24.1536 20.5176 25.2001 20.6912 26.123 21.1631C28.0823 22.2127 29.3 24.8649 29.104 27.0517C28.9291 28.9796 28.0544 30.3092 26.6023 31.4744C26.1425 31.8514 25.644 32.1786 25.1153 32.4506L26.1194 37.566C26.1655 38.0017 26.1807 38.4402 26.1649 38.8781C26.0425 41.5758 23.9431 43.1328 21.3399 43.0138C19.335 42.8879 17.2567 41.2993 17.2462 39.291C17.2217 35.3932 22.4946 35.5786 22.1097 39.144C21.9977 40.1937 21.2315 41.1209 19.587 41.1804C20.9131 43.3777 25.0173 41.8067 25.2937 38.9236C25.3487 38.1871 25.2668 37.4469 25.0523 36.7403L24.293 32.7865C23.9432 32.8992 23.5835 32.9788 23.2188 33.0244C20.9184 33.279 18.6162 32.5611 16.8683 31.044C14.5018 28.8925 13.439 25.6563 14.0692 22.5206C14.594 19.8475 16.137 17.9475 17.8725 15.9742L17.855 15.9742ZM0.710281 6.63203C0.318004 6.63203 3.33413e-07 6.31403 3.33413e-07 5.92175C3.33413e-07 5.52948 0.318004 5.21147 0.710281 5.21147L16.3994 5.21147C16.326 5.68383 16.27 6.15618 16.235 6.63203H0.710281ZM29.5379 5.21147H42.2845C42.6767 5.21147 42.9948 5.52948 42.9948 5.92175C42.9948 6.31403 42.6767 6.63203 42.2845 6.63203L29.6779 6.63203C29.6569 6.15268 29.6149 5.68033 29.5484 5.21147H29.5379ZM0.710281 37.8144C0.323801 37.8144 0.010497 37.5011 0.010497 37.1146C0.010497 36.7282 0.323801 36.4149 0.710281 36.4149H14.2091C14.0086 36.8625 13.8618 37.3323 13.7718 37.8144L0.710281 37.8144ZM29.5659 36.4149H42.2845C42.6709 36.4149 42.9843 36.7282 42.9843 37.1146C42.9843 37.5011 42.6709 37.8144 42.2845 37.8144H29.7513V37.5135C29.7479 37.2985 29.7257 37.0843 29.6849 36.8732L29.5764 36.3939L29.5659 36.4149ZM0.710281 32.615C0.323801 32.615 0.010497 32.3017 0.010497 31.9152C0.010497 31.5288 0.323801 31.2155 0.710281 31.2155H12.2917C12.6076 31.7065 12.9584 32.1743 13.3414 32.615H0.710281ZM31.5533 31.2155H42.2845C42.6709 31.2155 42.9843 31.5288 42.9843 31.9152C42.9843 32.3017 42.6709 32.615 42.2845 32.615H30.5946C30.918 32.2259 31.2082 31.8104 31.4623 31.3729C31.4973 31.3169 31.5288 31.2574 31.5638 31.198L31.5533 31.2155ZM0.710281 27.4191C0.323801 27.4191 0.010497 27.1058 0.010497 26.7193C0.010497 26.3329 0.323801 26.0196 0.710281 26.0196H10.3883C10.4552 26.4905 10.5463 26.9576 10.6612 27.4191L0.710281 27.4191ZM32.7009 26.0196H42.2845C42.6709 26.0196 42.9843 26.3329 42.9843 26.7193C42.9843 27.1058 42.6709 27.4191 42.2845 27.4191H32.6904V27.3771C32.7255 26.9195 32.7255 26.4598 32.6904 26.0021L32.7009 26.0196ZM0.710281 22.2232C0.318004 22.2232 0 21.9052 0 21.5129C0 21.1207 0.318004 20.8027 0.710281 20.8027H10.7592C10.6647 21.1526 10.5842 21.478 10.5143 21.8279C10.4898 21.9573 10.4653 22.0903 10.4443 22.2232H0.710281ZM30.899 20.8027H42.2845C42.6767 20.8027 42.9948 21.1207 42.9948 21.5129C42.9948 21.9052 42.6767 22.2232 42.2845 22.2232H31.7282C31.6897 22.1428 31.6512 22.0623 31.6093 21.9818C31.4044 21.5726 31.1706 21.1785 30.9095 20.8027L30.899 20.8027ZM0.710281 17.0238C0.323801 17.0238 0.010497 16.7105 0.010497 16.324C0.010497 15.9376 0.323801 15.6243 0.710281 15.6243H13.4708C13.121 16.0721 12.7991 16.541 12.4807 17.0238H0.710281ZM27.2216 15.6243H42.2845C42.6709 15.6243 42.9843 15.9376 42.9843 16.324C42.9843 16.7105 42.6709 17.0238 42.2845 17.0238H26.2524L26.3784 16.8594C26.6746 16.4582 26.958 16.0406 27.2286 15.6068L27.2216 15.6243ZM0.710281 11.8279C0.31897 11.8279 0.00174983 11.5107 0.00174983 11.1194C0.00174983 10.7281 0.31897 10.4109 0.710281 10.4109L16.284 10.4109C16.3295 10.8167 16.3925 11.2296 16.4694 11.6425L16.5044 11.8279H0.710281ZM29.3455 10.4109H42.2915C42.6828 10.4109 43 10.7281 43 11.1194C43 11.5107 42.6828 11.8279 42.2915 11.8279H28.9781C29.1274 11.3614 29.2533 10.8891 29.356 10.4109H29.3455ZM21.2979 12.6327C20.5737 9.998 20.6821 6.65303 22.5471 4.4732C24.412 2.29337 26.4728 5.25346 23.7542 9.60612C23.057 10.7059 22.2352 11.7215 21.3049 12.6327H21.2979ZM21.2979 17.1813C21.0635 17.4157 20.8221 17.6501 20.5772 17.8811C19.1776 19.2247 17.778 20.5123 16.7283 22.4297C15.6778 24.2663 15.4859 26.4714 16.2035 28.4618C17.0432 31.0825 21.102 32.7375 24.1321 31.9607L22.5471 23.6788C21.2384 24.0386 20.2647 25.1358 20.0628 26.4779C19.9291 27.5144 20.3359 28.5471 21.1405 29.2141C21.3414 29.3869 21.5529 29.547 21.7738 29.6934C22.2077 29.9768 21.9977 30.1833 21.5884 30.0608C20.2343 29.6095 19.4225 28.8572 18.9887 27.8985C17.7045 25.0749 19.2791 21.9223 22.0222 20.9286L21.2979 17.1813ZM24.9613 31.6633L25.0033 31.6423C26.6828 30.8691 27.6975 28.7137 27.2776 26.7438C26.9922 25.4775 26.137 24.4144 24.9613 23.8642C24.4691 23.6105 23.919 23.4899 23.3658 23.5143L24.9613 31.6353V31.6633Z" fill="white"/>
</svg>
