<svg width="44" height="43" viewBox="0 0 44 43" fill="none" xmlns="http://www.w3.org/2000/svg">
<path fill-rule="evenodd" clip-rule="evenodd" d="M21.7754 0.03125C33.5678 0.03125 43.1289 9.59236 43.1289 21.3847C43.1289 33.1771 33.5678 42.7382 21.7754 42.7382C9.983 42.7382 0.421875 33.1771 0.421875 21.3847C0.421875 9.59236 9.983 0.03125 21.7754 0.03125ZM29.3763 22.7054C30.4642 22.0034 30.4607 21.2214 29.3763 20.5993L18.14 14.1418C17.2538 13.5857 16.3293 13.9124 16.3536 15.0698L16.3884 28.1203C16.4648 29.3749 17.1808 29.719 18.2373 29.1386L29.3763 22.7054ZM21.7754 4.36868C31.1732 4.36868 38.7915 11.987 38.7915 21.3847C38.7915 30.7825 31.1732 38.4008 21.7754 38.4008C12.3776 38.4008 4.75931 30.7825 4.75931 21.3847C4.75931 11.987 12.3776 4.36868 21.7754 4.36868Z" fill="white"/>
</svg>
