<svg width="44" height="38" viewBox="0 0 44 38" fill="none" xmlns="http://www.w3.org/2000/svg">
<path fill-rule="evenodd" clip-rule="evenodd" d="M11.4195 0.078125H32.1195C32.8416 0.078125 33.4275 0.66244 33.4294 1.38448V35.8846C33.4237 36.6031 32.8416 37.1836 32.123 37.1874H11.4195C10.7001 37.1855 10.1169 36.6039 10.1131 35.8846L10.1131 1.38447C10.115 0.663789 10.6988 0.0800343 11.4195 0.078125ZM5.80843 20.8581C6.01854 20.3486 6.60185 20.106 7.1113 20.3161C7.62075 20.5262 7.86341 21.1095 7.6533 21.619C7.20721 22.7751 6.97756 24.0035 6.9758 25.2427C6.93508 26.4454 7.12495 27.6448 7.53517 28.7761C7.69212 29.111 7.65076 29.5053 7.42771 29.8004C7.20466 30.0955 6.83659 30.2429 6.47152 30.1833C6.10646 30.1236 5.8044 29.8668 5.68682 29.5161C5.17923 28.1432 4.94323 26.6848 4.99196 25.2218C4.99553 23.7296 5.27225 22.2507 5.80843 20.8581ZM1.83726 19.0792C2.07712 18.5832 2.67366 18.3755 3.16967 18.6154C3.66569 18.8553 3.87335 19.4518 3.63349 19.9478C2.83991 21.6389 2.42379 23.4824 2.414 25.3504C2.38136 27.1056 2.771 28.8429 3.55011 30.416C3.80723 30.9101 3.61512 31.519 3.12103 31.7762C2.62693 32.0333 2.01795 31.8412 1.76083 31.3471C0.835154 29.4825 0.376128 27.4211 0.423211 25.34V25.34C0.434191 23.1773 0.916759 21.0431 1.83727 19.0862L1.83726 19.0792ZM35.8857 21.6224C35.6747 21.113 35.9165 20.5289 36.426 20.3178C36.9354 20.1068 37.5195 20.3486 37.7306 20.8581C38.2691 22.2502 38.5482 23.7292 38.554 25.2218C38.6027 26.6848 38.3667 28.1432 37.8591 29.5161C37.7416 29.8668 37.4395 30.1237 37.0744 30.1833C36.7094 30.2429 36.3413 30.0955 36.1182 29.8005C35.8952 29.5054 35.8538 29.111 36.0108 28.7761C36.4158 27.6449 36.601 26.4468 36.5563 25.2462C36.549 24.0058 36.3134 22.7775 35.8614 21.6224H35.8857ZM39.9055 19.9478C39.6657 19.4518 39.8733 18.8553 40.3694 18.6154C40.8654 18.3755 41.4619 18.5832 41.7018 19.0792C42.6222 21.0362 43.1047 23.1704 43.1158 25.333C43.1597 27.4172 42.6971 29.481 41.7678 31.3471C41.6099 31.6731 41.2876 31.8878 40.926 31.908C40.5644 31.9282 40.2202 31.7507 40.027 31.4444C39.8338 31.138 39.8218 30.751 39.9959 30.4333C40.7705 28.8593 41.1543 27.1217 41.1146 25.3678C41.1048 23.4998 40.6887 21.6563 39.8951 19.9652L39.9055 19.9478ZM21.7695 3.75396C23.971 3.75218 25.8671 5.306 26.298 7.46495C26.7288 9.62389 25.5743 11.7865 23.5407 12.6298C21.5072 13.4732 19.161 12.7623 17.9375 10.9321C16.714 9.10191 16.9539 6.66224 18.5106 5.10548C19.3739 4.23942 20.5467 3.75304 21.7695 3.75396ZM21.7695 16.9773C25.6915 16.9755 29.0685 19.7448 29.8349 23.5912C30.6013 27.4376 28.5437 31.2897 24.9205 32.7913C21.2974 34.293 17.118 33.026 14.9387 29.7652C12.7594 26.5045 13.1872 22.1583 15.9604 19.385C17.4992 17.8413 19.5899 16.9748 21.7695 16.9773V16.9773ZM26.4807 20.4724C24.2279 18.2199 20.6977 17.8723 18.0489 19.6424C15.4001 21.4124 14.3706 24.807 15.5899 27.7502C16.8092 30.6934 19.9377 32.3654 23.0622 31.7437C26.1867 31.122 28.4369 28.3798 28.4368 25.194C28.4393 23.4225 27.7353 21.7231 26.4807 20.4724V20.4724ZM21.7695 22.7307C23.13 22.7307 24.2328 23.8336 24.2328 25.194C24.2328 26.5545 23.1299 27.6573 21.7695 27.6573C20.4091 27.6573 19.3062 26.5545 19.3062 25.194C19.3062 23.8336 20.4091 22.7307 21.7695 22.7307H21.7695ZM21.7695 6.9156C22.5697 6.9156 23.2183 7.56425 23.2183 8.3644C23.2183 9.16454 22.5697 9.81319 21.7695 9.81319C20.9694 9.81319 20.3207 9.16454 20.3207 8.3644C20.3207 7.56425 20.9694 6.9156 21.7695 6.9156L21.7695 6.9156ZM24.2015 5.91847C23.0308 4.74149 21.191 4.55717 19.8101 5.47851C18.4291 6.39985 17.8929 8.16941 18.5301 9.70232C19.1674 11.2352 20.8 12.1032 22.4272 11.774C24.0543 11.4448 25.2212 10.0106 25.2126 8.3505C25.2108 7.43794 24.8472 6.56333 24.2015 5.91847Z" fill="white"/>
</svg>
