<svg width="44" height="31" viewBox="0 0 44 31" fill="none" xmlns="http://www.w3.org/2000/svg">
<path d="M4.56182 7.97821H12.4977L19.0624 1.3503C19.549 0.867609 20.3338 0.86761 20.8205 1.3503C21.0517 1.58512 21.1785 1.90331 21.1721 2.23285V29.5848C21.1714 30.0929 20.8638 30.5502 20.3934 30.7422C19.923 30.9342 19.3832 30.8229 19.0272 30.4604L12.5399 25.1862H4.56182C2.36871 25.1804 0.591196 23.406 0.581543 21.2129L0.581543 11.9585C0.591172 9.76424 2.36757 7.98784 4.56182 7.97821H4.56182ZM26.8506 12.1167C26.6759 11.5154 27.0067 10.8833 27.6003 10.6841C28.194 10.485 28.8391 10.7897 29.0623 11.3748C29.4631 12.5668 29.6565 14.4198 29.6249 16.1813C29.5932 17.9429 29.3401 19.599 28.8548 20.6011C28.5723 21.1837 27.871 21.4269 27.2884 21.1444C26.7058 20.8618 26.4626 20.1605 26.7452 19.5779C27.0968 18.8747 27.262 17.5526 27.2902 16.1427C27.3457 14.7858 27.1952 13.4284 26.8436 12.1167H26.8506ZM32.8773 7.75669C32.6297 7.15956 32.9131 6.47477 33.5102 6.22717C34.1073 5.97958 34.7921 6.26294 35.0397 6.86008C36.1227 9.46202 36.7099 12.7355 36.7591 16.002C36.8083 19.2685 36.3337 22.419 35.3034 24.9717C35.0636 25.5688 34.3851 25.8585 33.788 25.6186C33.1908 25.3788 32.9012 24.7003 33.141 24.1032C34.0552 21.8388 34.4736 18.945 34.4314 16.0161C34.3892 13.0872 33.8583 10.0879 32.8808 7.75318L32.8773 7.75669ZM38.7035 4.05069C38.4239 3.46811 38.6695 2.76916 39.2521 2.48952C39.8346 2.20989 40.5336 2.45547 40.8132 3.03804C42.7527 7.16832 43.7701 11.6712 43.7949 16.2341C43.8301 20.6574 42.937 25.0666 40.982 28.8254C40.8078 29.2196 40.4298 29.4853 39.9998 29.5158C39.5699 29.5463 39.1582 29.3367 38.93 28.9709C38.7019 28.6052 38.6945 28.1433 38.911 27.7705C40.6691 24.3564 41.4848 20.3269 41.4532 16.2657C41.434 12.0469 40.4944 7.88304 38.7 4.06475L38.7035 4.05069Z" fill="white"/>
</svg>
